<svg width="137" height="142" viewBox="0 0 137 142" fill="none" xmlns="http://www.w3.org/2000/svg">
<path d="M119.512 27.748C117.638 34.4425 109.68 62.142 113.744 71.138C104.135 53.5588 85.528 32.7962 98.0796 82.562C89.3717 67.348 74.2097 48.291 73.1232 101.591C70.6602 75.3741 43.9325 65.8413 50.1525 114.909C41.5847 100.236 30.1916 76.3331 19.6052 110.697M19.6052 110.697L17.9236 92.5076M19.6052 110.697L35.7216 104.355" stroke="#FFF4D2" stroke-width="36" stroke-linejoin="round"/>
<path d="M114.799 40.1105C112.925 46.8049 109.68 62.142 113.744 71.138C104.135 53.5588 85.528 32.7962 98.0796 82.562C89.3717 67.348 74.2097 48.291 73.1232 101.591C70.6602 75.3741 43.9325 65.8413 50.1525 114.909C41.5847 100.236 30.1916 76.3331 19.6052 110.697M19.6052 110.697L17.9236 92.5076M19.6052 110.697L35.7216 104.355" stroke="#FFC300" stroke-width="4"/>
</svg>
