<svg width="426" height="336" viewBox="0 0 426 336" fill="none" xmlns="http://www.w3.org/2000/svg">
<path d="M0 -1.86211e-05C42.515 18.7227 87.5808 97.8689 96.384 120.846C104.957 143.222 120.231 209.921 128.281 239.991C130.031 245.948 133.446 256.161 138.591 257.863C143.735 259.565 150.45 257.012 148.9 239.991C147.35 222.971 113.888 120.846 113.888 120.846C111.904 110.918 109.126 86.2945 113.888 67.2313C119.841 43.4024 132.596 14.2272 166.608 5.10583C200.62 -4.01552 233.848 15.4229 238.033 19.5734C242.323 23.829 266.981 46.8068 278.885 111.486C279.736 114.89 283.755 126.128 289.103 128.506C296.755 131.91 318.862 127.655 323.113 125.953C326.631 124.818 336.318 121.017 346.922 114.89C360.177 107.23 378.383 82.75 401.341 76.5931C419.707 71.6676 420.898 77.3776 419.197 80.8483C417.041 83.6851 408.41 92.0819 401.341 96.1669C405.309 96.2144 411.499 97.6609 412.396 102.975C413.246 108.01 410.695 110.634 409.845 111.486C413.813 111.202 422.089 111.996 423.45 117.443C424.81 122.889 419.481 128.506 416.647 130.208C419.764 131.059 426 132.932 426 137.017C426 142.123 421.748 146.5 401.341 158.292C407.125 167.37 419.618 189.13 413.522 198.291C409.845 203.817 391.138 179.887 383.485 177.015C376.683 174.462 350.083 178.13 337.569 183.823C328.216 188.079 298.455 194.887 282.299 194.887C267.188 194.32 233.958 181.951 221.928 137.017C206.891 80.8483 203.222 74.891 186.216 74.891C169.21 74.891 173.461 105.528 186.216 134.463C198.97 163.399 211.725 218.715 211.725 239.991C211.725 256.161 216.826 308.074 174.311 331.052C146.251 342.967 97.836 339.563 65.473 249.353C56.1713 216.163 39.9641 138.719 -5.02199e-06 114.89L0 -1.86211e-05Z" fill="#02BD56"/>
</svg>
