<svg width="71" height="97" viewBox="0 0 71 97" fill="none" xmlns="http://www.w3.org/2000/svg">
<path d="M10.9616 50.2981C6.16564 43.5143 2.86463 29.2136 12.4631 16.0602C29.8905 -7.82177 55.0561 3.25182 63.9861 16.0466C71.1788 26.3524 73.6271 56.0195 42.8042 60.7165M10.9616 50.2981C9.56531 52.8423 8.30233 55.2884 6.45648 59.6891M10.9616 50.2981C13.7327 54.2178 18.0048 56.6397 21.7204 58.1538M42.8042 60.7165C42.6411 61.6192 42.0841 67.827 39.3226 74.0696M42.8042 60.7165C38.2431 60.9419 32.9107 60.685 26.7137 59.6627M6.45648 59.6891C10.336 65.3795 22.3405 76.2223 39.3226 74.0696M6.45648 59.6891C5.02152 63.1101 2.80523 68.755 2.18679 72.955M39.3226 74.0696C38.1306 76.7642 36.7375 79.4619 35.2707 81.727M2.18679 72.955C1.78873 75.6582 2.03312 76.8079 2.85992 79.6015C3.44082 81.5643 4.76584 84.5936 6.25423 86.7331C8.28322 89.6497 7.3095 93.455 7.67021 94.4523C7.95877 95.2501 8.57849 94.61 10.5558 94.035L19.5355 91.0026C21.5128 90.4212 28.124 90.1303 32.7961 85.0085C33.6292 84.0953 34.4612 82.977 35.2707 81.727M2.18679 72.955C5.5588 77.2926 17.6725 83.7683 35.2707 81.727M21.7204 58.1538C22.986 58.6695 24.1869 59.08 25.2421 59.4084C25.7379 59.4979 26.2285 59.5827 26.7137 59.6627M21.7204 58.1538C20.23 45.6603 21.788 21.4784 33.0919 26.3165C36.2314 29.68 33.928 32.0603 31.2274 41.826C34.438 39.6095 36.0684 30.5826 38.9529 30.1715C46.307 29.1233 48.5344 39.3592 26.7137 59.6627" stroke="#FF7865" stroke-width="4"/>
</svg>
