<svg width="299" height="561" viewBox="0 0 299 561" fill="none" xmlns="http://www.w3.org/2000/svg">
<path d="M7.12012 96.8401L6.67595 96.7963" stroke="#F0E5A8" stroke-width="4" stroke-linecap="round"/>
<path d="M5.2 89.3961C5.2 72.7561 15.44 77.2364 18 67.6366C18 56.1164 2 60.5932 2 73.395V74.44" stroke="#F0E5A8" stroke-width="4" stroke-linecap="round"/>
<path d="M167.862 354.078C174.779 354.772 203.435 357.84 211.597 352.287C195.935 364.781 178.687 386.685 225.548 365.751C212.061 376.949 195.899 395.166 248.591 387.057C223.189 393.998 218.401 421.969 265.665 407.392C252.687 418.358 231.103 433.697 266.776 438.208M266.776 438.208L249.148 442.997M266.776 438.208L257.754 423.424" stroke="#FFF4D2" stroke-width="36" stroke-linejoin="round"/>
<path d="M180.851 356.591C187.768 357.285 203.435 357.84 211.597 352.287C195.935 364.781 178.687 386.685 225.548 365.751C212.061 376.949 195.899 395.166 248.591 387.057C223.189 393.998 218.401 421.969 265.665 407.392C252.687 418.358 231.103 433.697 266.776 438.208M266.776 438.208L249.148 442.997M266.776 438.208L257.754 423.424" stroke="#FFC300" stroke-width="4"/>
<path d="M238.67 99.7177C259.607 96.5752 281.021 78.7475 267.047 44.8648C261.02 30.2522 235.035 18.3647 209.01 26.4699C186.292 33.5452 169.523 58.6595 180.37 74.3751C201.733 105.326 249.596 74.5867 246.423 43.8586C242.53 6.15051 202.71 12.863 199.186 12.7472C194.487 12.5928 134.258 23.2249 135.026 60.9636C134.817 73.2596 138.328 91.1763 148.172 107.827M148.172 107.827C143.158 106.136 128.506 98.4355 121.29 90.5851M148.172 107.827C149.379 103.299 150.983 90.308 152.415 85.929" stroke="#F0E5A8" stroke-width="4"/>
<path d="M46.6441 495.229C41.8482 488.445 38.5472 474.145 48.1456 460.991C65.5731 437.109 90.7387 448.183 99.6686 460.978C106.861 471.284 109.31 500.951 78.4867 505.648M46.6441 495.229C45.2479 497.773 43.9849 500.22 42.139 504.62M46.6441 495.229C49.4153 499.149 53.6874 501.571 57.403 503.085M78.4867 505.648C78.3237 506.55 77.7666 512.758 75.0051 519.001M78.4867 505.648C73.9257 505.873 68.5932 505.616 62.3963 504.594M42.139 504.62C46.0186 510.311 58.0231 521.153 75.0051 519.001M42.139 504.62C40.7041 508.041 38.4878 513.686 37.8693 517.886M75.0051 519.001C73.8131 521.695 72.4201 524.393 70.9532 526.658M37.8693 517.886C37.4713 520.589 37.7157 521.739 38.5425 524.533C39.1234 526.495 40.4484 529.525 41.9368 531.664C43.9658 534.581 42.9921 538.386 43.3528 539.383C43.6413 540.181 44.261 539.541 46.2384 538.966L55.2181 535.934C57.1954 535.352 63.8065 535.061 68.4786 529.94C69.3117 529.026 70.1437 527.908 70.9532 526.658M37.8693 517.886C41.2414 522.224 53.355 528.7 70.9532 526.658M57.403 503.085C58.6685 503.601 59.8695 504.011 60.9246 504.34C61.4205 504.429 61.911 504.514 62.3963 504.594M57.403 503.085C55.9125 490.591 57.4706 466.41 68.7745 471.248C71.914 474.611 69.6106 476.991 66.9099 486.757C70.1205 484.541 71.751 475.514 74.6355 475.103C81.9895 474.054 84.217 484.29 62.3963 504.594" stroke="#FFE7E4" stroke-width="42"/>
<path d="M46.6441 495.229C41.8482 488.445 38.5472 474.145 48.1456 460.991C65.5731 437.109 90.7387 448.183 99.6686 460.978C106.861 471.284 109.31 500.951 78.4867 505.648M46.6441 495.229C45.2479 497.773 43.9849 500.22 42.139 504.62M46.6441 495.229C49.4153 499.149 53.6874 501.571 57.403 503.085M78.4867 505.648C78.3237 506.55 77.7666 512.758 75.0051 519.001M78.4867 505.648C73.9257 505.873 68.5932 505.616 62.3963 504.594M42.139 504.62C46.0186 510.311 58.0231 521.153 75.0051 519.001M42.139 504.62C40.7041 508.041 38.4878 513.686 37.8693 517.886M75.0051 519.001C73.8131 521.695 72.4201 524.393 70.9532 526.658M37.8693 517.886C37.4713 520.589 37.7157 521.739 38.5425 524.533C39.1234 526.495 40.4484 529.525 41.9368 531.664C43.9658 534.581 42.9921 538.386 43.3528 539.383C43.6413 540.181 44.261 539.541 46.2384 538.966L55.2181 535.934C57.1954 535.352 63.8065 535.061 68.4786 529.94C69.3117 529.026 70.1437 527.908 70.9532 526.658M37.8693 517.886C41.2414 522.224 53.355 528.7 70.9532 526.658M57.403 503.085C58.6685 503.601 59.8695 504.011 60.9246 504.34C61.4205 504.429 61.911 504.514 62.3963 504.594M57.403 503.085C55.9125 490.591 57.4706 466.41 68.7745 471.248C71.914 474.611 69.6106 476.991 66.9099 486.757C70.1205 484.541 71.751 475.514 74.6355 475.103C81.9895 474.054 84.217 484.29 62.3963 504.594" stroke="#FF7865" stroke-width="4"/>
</svg>
