<svg width="417" height="310" viewBox="0 0 417 310" fill="none" xmlns="http://www.w3.org/2000/svg">
<path d="M417 310C377.736 292.726 336.115 219.704 327.985 198.505C320.067 177.86 305.961 116.323 298.526 88.5796C296.91 83.0833 293.756 73.6611 289.005 72.0908C284.254 70.5204 278.052 72.876 279.484 88.5796C280.916 104.283 311.819 198.505 311.819 198.505C313.652 207.665 316.217 230.383 311.819 247.971C306.321 269.956 294.542 296.874 263.13 305.289C231.718 313.705 201.03 295.771 197.165 291.941C193.203 288.015 170.43 266.815 159.436 207.141C158.65 204.001 154.938 193.632 150 191.438C142.932 188.297 122.858 192.418 118.589 193.793C115.34 194.84 105.178 199.158 94.6598 203.307C71.8428 212.306 65.5627 211.174 60.5114 209.646C58.6792 209.091 57.5118 207.443 54.9117 207.847C48.6525 208.819 30.4526 214.824 23.4151 217.509C13.7782 220.596 9.57303 218.3 10.3768 215.794C11.0957 213.552 26.9392 202.571 33.6316 201.01L31.3499 196.569L27.9873 195.488C19.0307 192.611 1.91361 192.058 0.390364 189.094C-0.811724 186.755 -0.783602 181.165 24.3446 183.741C15.3262 179.42 20.9118 171.546 25.8826 167.438C24.9275 166.204 24.4247 164.855 24.654 163.507C25.6817 157.466 43.9096 151.556 61.3348 149.325C67.9892 148.473 81.9915 147.74 105.482 138.778C114.347 135.396 140.308 130.03 155.229 130.03C169.185 130.554 200.929 142.128 212.039 183.586C225.926 235.408 229.315 240.904 245.021 240.904C260.727 240.904 256.801 212.638 245.021 185.942C233.242 159.245 221.462 108.21 221.462 88.5796C221.462 73.6607 216.75 25.7647 256.015 4.56483C281.93 -6.42769 326.644 -3.28695 356.533 79.9422C365.123 110.564 380.091 182.016 417 204.001L417 310Z" fill="#FF7865"/>
</svg>
