<svg width="154" height="101" viewBox="0 0 154 101" fill="none" xmlns="http://www.w3.org/2000/svg">
<path d="M118.853 89.3635C139.79 86.221 161.204 68.3932 147.229 34.5106C141.203 19.8979 115.218 8.0104 89.1927 16.1156C66.4748 23.1909 49.7055 48.3053 60.553 64.0209C81.916 94.9714 129.778 64.2325 126.605 33.5044C122.712 -4.20374 82.8923 2.50875 79.3681 2.39293C74.6697 2.23853 14.4411 12.8706 15.2089 50.6093C15 62.9054 18.5109 80.8221 28.3548 97.4723M28.3548 97.4723C23.3401 95.7818 8.68836 88.0812 1.47247 80.2309M28.3548 97.4723C29.5618 92.9452 31.1656 79.9538 32.5976 75.5747" stroke="#F0E5A8" stroke-width="4"/>
</svg>
