<svg width="411" height="369" viewBox="0 0 411 369" fill="none" xmlns="http://www.w3.org/2000/svg">
<path d="M214.509 368.786C227.287 349.037 223.413 354.708 238.625 332.658C254.731 309.312 303.928 256.414 325.972 230.676C330.244 225.438 337.312 216.085 335.672 210.414C334.033 204.744 327.605 200.28 313.275 212.147C298.945 224.014 227.846 316.927 227.846 316.927C220.152 324.82 199.751 342.469 179.7 349.92C154.636 359.233 120.582 365.725 91.4463 340.772C62.31 315.82 60.4173 274.378 61.5677 268.063C62.7472 261.589 67.0807 224.909 117.83 174.41C120.364 171.551 127.98 161.024 126.823 154.755C125.167 145.783 107.732 128.535 103.585 125.761C100.4 123.298 91.0214 116.932 78.9889 111.174C63.9483 103.975 30.7535 102.678 11.0865 85.835C-4.64702 72.3607 -0.252598 67.7772 3.91131 67.1697C7.78633 67.3615 20.6419 69.9509 28.6635 73.7901C26.2623 70.1946 23.7498 63.7424 27.9693 59.6657C31.9669 55.8033 35.895 56.4816 37.1823 56.7212C34.484 53.3298 30.1005 45.4035 34.1537 40.8292C38.2069 36.255 46.5327 37.588 49.8065 39.0877C48.6509 35.7625 46.4921 29.0064 50.1603 26.4927C54.7456 23.3506 61.2949 24.478 84.4514 35.5607C89.0408 24.7764 100.888 0.159508 112.868 0.00020433C120.095 -0.0959028 110.127 31.4414 112.26 40.086C114.157 47.7702 133.832 69.4174 146.65 77.1598C156.231 82.9469 180.672 105.502 190.621 120.021C199.418 133.95 208.775 171.424 175.833 209.885C134.654 257.962 131.565 264.926 142.037 280.208C152.51 295.491 177.404 272.817 195.533 243.55C213.661 214.282 255.48 168.781 274.586 155.689C289.107 145.738 332.582 109.208 379.398 133.275C407.376 151.16 434.135 196.764 373.058 281.359C348.982 310.142 326.246 340.459 300.922 368.786L214.509 368.786Z" fill="#FFC400"/>
</svg>
